<?xml version="1.0" encoding="utf-8"?>
<!-- Generator: Adobe Illustrator 19.0.0, SVG Export Plug-In . SVG Version: 6.00 Build 0)  -->
<svg version="1.1" id="Layer_1" xmlns="http://www.w3.org/2000/svg" xmlns:xlink="http://www.w3.org/1999/xlink" x="0px" y="0px"
	 viewBox="0 0 940 252" style="enable-background:new 0 0 940 252;" xml:space="preserve">
<style type="text/css">
	.st0{fill:#457B9D;}
	.st1{fill:#A8DADC;}
	.st2{fill:#231F20;}
</style>
<circle id="XMLID_7_" cx="646.4" cy="126.4" r="122.6"/>
<g id="XMLID_3_">
	<path id="XMLID_4_" class="st0" d="M797.8,21.7c-0.4,0-0.6-0.4-0.6-0.8l0.3-8.2c0,0,0.6-3,0.6-3c0-4.8-4.1-5.8-8.5-5.8h-25.8
		c-4.8,0-8.6,4.3-8.6,9.6l0.6,6.3c0,0.4-0.3,0.7-0.7,0.8c-63.5,2.7-110.8,17.5-134.8,48.7c-2,2.5-1,6.5,1.8,7.7l12.9,5.4
		c1.6,0.7,4.9-1.5,5.9-3c2.1-3.3,9.8-5.8,11.3-6.4c9.7-4,25-7.1,41.7-9.3c27.7-3.6,59.1-4.8,74-4.4c122,3.3,148.9,25.4,149.5,53.8
		c0.8,38.5-70.2,61.7-150,61.7c-51.6,0-95.8-4.9-121.2-23.1c-4.4-3.1-4.6-4.9-7.5-8.3c-1.2-1.4-3-1.9-4.7-1.2l-13.9,5.8
		c-2.8,1.2-3.8,5.1-1.8,7.7c24,31.4,73.4,48.8,137.4,51.3c0.4,0,0.7,0.4,0.7,0.8l-0.8,6.9c0,0.1-0.1,4.4-0.6,6.5
		c-0.1,0.3,0.2,0.7,0.5,0.8c1.5,0.4,5.6,1.7,8,1.7h26.5c4.4,0,7.9-3.9,7.9-8.8l-0.2-8.3c0-0.4,0.3-0.7,0.6-0.8
		c78.1-8,137.2-46.1,137.2-91.9C935.4,67.7,876,29.5,797.8,21.7z"/>
	<path id="XMLID_6_" class="st1" d="M707.9,116.8c-0.1-1.1,0.7-3,0.7-4.5c0-4.1-1.2-7.3-4.2-11.2c-2.4-3.1-9.3-5.5-15.3-5.5
		c-4.3,0-8.9,2.8-10.9,3.7c-2,0.9-9.7,2.2-8.7,13.1c0.2,1.8-0.1,3.7,0.9,5.1c2.5,3.4,2.9,6.7,4.9,8.4c2.8,2.4,7,2.5,11.6,3.2
		c0.7,0.1,1.4,0.1,2.2,0.1C698.1,129.1,708.6,124.2,707.9,116.8z"/>
	<path id="XMLID_15_" class="st1" d="M836.4,116c0.1-1.1-0.7-3-0.7-4.5c0-4.1,1.2-7.3,4.2-11.2c2.4-3.1,9.3-5.5,15.3-5.5
		c4.3,0,8.9,2.8,10.9,3.7c2,0.9,9.7,2.2,8.7,13.1c-0.2,1.8,0.1,3.7-0.9,5.1c-2.5,3.4-2.9,6.7-4.9,8.4c-2.8,2.4-7,2.5-11.6,3.2
		c-0.7,0.1-1.4,0.1-2.2,0.1C846.3,128.2,835.7,123.3,836.4,116z"/>
</g>
<g id="XMLID_20_">
	<path id="XMLID_21_" class="st2" d="M93.2,112.9c-9.5-1.2-16.9-2.2-22.4-3.1c-9.8-1.8-17-5-21.4-9.7c-4.5-4.6-6.7-9.7-6.7-15.4
		c0.2-9.4,3.5-16.5,10-21.3c6.2-4.6,13.9-6.9,23.2-6.9c17.9,0.4,34.4,5.4,49.3,15.1L142,47.2c-18.3-13-39.8-19.8-64.5-20.3
		c-20.6,0.2-36.4,5.5-47.6,15.9C18.3,53.3,12.6,67.2,12.6,84.4c0,14.3,4.6,26.4,13.8,36.4c8.9,9.7,21.9,16,39.1,18.7
		c9.6,1.3,18.3,2.6,26.4,3.6c17.5,3,26.1,11.8,26,26.4c-0.4,17.9-13.5,27-39.4,27.4c-21.9-0.2-40.7-6.7-56.6-19.6L2,199.8
		c21.2,17.9,46.5,26.8,76,26.8c45.6-0.5,68.9-19.6,69.9-57.2c0-13.9-4.4-26.2-13.3-36.7C125.7,122.1,111.9,115.4,93.2,112.9z"/>
	<path id="XMLID_22_" class="st2" d="M250.2,70.5c-11.2-10.3-24.9-15.6-41.1-15.8c-6.7,0-13.6,1.2-20.5,3.6c-7,2.4-13.3,6.4-19,11.9
		c-5.6,5.4-10.1,12.8-13.6,22.1c-3.6,9.2-5.3,20.7-5.3,34.5c0,14.4,2,26.1,6.1,35c3.7,9.3,8.6,16.6,14.6,21.8
		c3.1,2.5,6.4,4.6,10,6.3c3.4,2,6.8,3.5,10.4,4.7c7.1,2.2,14.4,3.2,21.8,3.2c19.6,0.2,36.6-7.4,51.1-22.6L244.1,158
		c-9.1,9.1-19.4,13.6-31,13.6c-9.9,0-17.9-3-24-8.9c-6.6-5.8-9.8-14.4-9.8-25.6h88.4v-23.2C267.4,95.5,261.6,81,250.2,70.5z"/>
	<path id="XMLID_2_" class="st2" d="M377.1,70.5c-11.2-10.3-24.9-15.6-41.1-15.8c-6.7,0-13.6,1.2-20.5,3.6c-7,2.4-13.3,6.4-19,11.9
		c-5.6,5.4-10.1,12.8-13.6,22.1c-3.6,9.2-5.3,20.7-5.3,34.5c0,14.4,2,26.1,6.1,35c3.7,9.3,8.6,16.6,14.6,21.8
		c3.1,2.5,6.4,4.6,10,6.3c3.4,2,6.8,3.5,10.4,4.7c7.1,2.2,14.4,3.2,21.8,3.2c19.6,0.2,36.6-7.4,51.1-22.6L370.9,158
		c-9.1,9.1-19.4,13.6-31,13.6c-9.9,0-17.9-3-24-8.9c-6.6-5.8-9.8-14.4-9.8-25.6h88.4v-23.2C394.2,95.5,388.5,81,377.1,70.5z"/>
	<path id="XMLID_26_" class="st2" d="M504.8,68.2C495.1,60,484.3,56,472.6,56c-15.2,0-27.5,5.5-36.8,16.6h-0.5V57.7h-28.5v139.9
		h28.5v-83.4c0-9.8,2.7-17.3,8.1-22.4c5.3-5.2,12-7.8,20.2-7.8c8.2,0,14.9,2.6,20.1,7.8c5.3,5.1,7.9,12.6,7.9,22.4v83.4H520v-93
		C519.5,88.6,514.5,76.5,504.8,68.2z"/>
</g>
</svg>
